# Blender v2.78 (sub 0) OBJ File: ''
# www.blender.org
o mesh078
v -0.000456 -0.729849 0.328194
v -0.231156 -0.729849 0.210991
v -0.000456 -0.829949 0.015694
v -0.338556 -0.729849 0.015694
v -0.295856 -0.453949 0.523491
v -0.000456 -0.453949 0.601593
v -0.000456 -0.160949 0.679695
v -0.512556 -0.453949 0.289093
v -0.591856 -0.453949 0.015694
v -0.334256 -0.160949 0.562492
v -0.578456 -0.160949 0.328194
v -0.668156 -0.160949 0.015694
v -0.000456 0.044151 0.640694
v -0.317756 0.044151 0.562492
v -0.550356 0.044151 0.328194
v -0.635756 0.044151 0.015694
v -0.270156 0.232051 0.445396
v -0.467956 0.232051 0.249992
v -0.000456 0.232051 0.523491
v 0.270544 0.232051 0.445396
v -0.000456 0.378551 0.406296
v 0.318244 0.044151 0.562492
v 0.334044 -0.160949 0.562492
v 0.196144 0.378551 0.328194
v 0.468344 0.232051 0.249992
v 0.340144 0.378551 0.210991
v 0.103344 0.473751 0.171890
v 0.550144 0.044151 0.328194
v 0.179044 0.473751 0.093796
v 0.207044 0.473751 0.015694
v 0.296244 -0.453949 0.523491
v 0.231544 -0.729849 0.210991
v 0.338944 -0.729849 0.015694
v 0.579444 -0.160949 0.328194
v 0.512244 -0.453949 0.289093
v 0.591644 -0.453949 0.015694
v 0.668544 -0.160949 0.015694
v 0.635544 0.044151 0.015694
v 0.540344 0.232051 0.015694
v 0.392644 0.378551 0.015694
v 0.468344 0.232051 -0.257805
v 0.340144 0.378551 -0.218704
v 0.179044 0.473751 -0.101509
v 0.550144 0.044151 -0.335907
v 0.579444 -0.160949 -0.335907
v 0.196144 0.378551 -0.335907
v 0.270544 0.232051 -0.453110
v 0.103344 0.473751 -0.179604
v -0.000456 0.505551 0.015694
v -0.000456 0.473751 -0.218704
v -0.000456 0.378551 -0.414009
v -0.102956 0.473751 -0.179604
v -0.000456 0.232051 -0.531204
v -0.196356 0.378551 -0.335907
v -0.178656 0.473751 -0.101509
v 0.318244 0.044151 -0.570305
v -0.000456 0.044151 -0.648407
v 0.512244 -0.453949 -0.296806
v 0.334044 -0.160949 -0.570305
v -0.000456 -0.160949 -0.687508
v 0.231544 -0.729849 -0.218704
v 0.296244 -0.453949 -0.531204
v -0.000456 -0.453949 -0.609306
v -0.000456 -0.729849 -0.335907
v -0.270156 0.232051 -0.453110
v -0.317756 0.044151 -0.570305
v -0.334256 -0.160949 -0.570305
v -0.339756 0.378551 -0.218704
v -0.467956 0.232051 -0.257805
v -0.206156 0.473751 0.015694
v -0.392856 0.378551 0.015694
v -0.178656 0.473751 0.093796
v -0.550356 0.044151 -0.335907
v -0.540556 0.232051 0.015694
v -0.339756 0.378551 0.210991
v -0.102956 0.473751 0.171890
v -0.000456 0.473751 0.210991
v -0.196356 0.378551 0.328194
v -0.578456 -0.160949 -0.335907
v -0.295856 -0.453949 -0.531204
v -0.512556 -0.453949 -0.296806
v -0.231156 -0.729849 -0.218704
vt 0.4727 -0.0556
vt 0.1462 -0.1744
vt 0.2817 -0.0983
vt 0.0565 -0.4824
vt 0.0769 -0.3103
vt 0.2766 -0.1370
vt 0.4734 -0.0860
vt 0.4741 -0.1067
vt 0.1365 -0.2808
vt 0.0847 -0.4827
vt 0.2900 -0.1571
vt 0.1553 -0.2947
vt 0.1059 -0.4829
vt 0.4741 -0.1387
vt 0.3057 -0.1848
vt 0.1824 -0.3108
vt 0.1372 -0.4829
vt 0.3308 -0.2294
vt 0.2260 -0.3364
vt 0.4741 -0.1901
vt 0.6177 -0.2294
vt 0.4741 -0.2700
vt 0.6426 -0.1848
vt 0.6582 -0.1571
vt 0.5781 -0.2986
vt 0.7227 -0.3364
vt 0.6543 -0.3765
vt 0.5288 -0.3860
vt 0.7661 -0.3108
vt 0.5688 -0.4270
vt 0.5835 -0.4829
vt 0.6724 -0.1404
vt 0.7813 -0.1578
vt 0.6353 -0.0855
vt 0.8882 -0.4697
vt 0.8521 -0.2922
vt 0.7930 -0.2947
vt 0.8149 -0.2864
vt 0.8594 -0.4790
vt 0.8423 -0.4829
vt 0.8110 -0.4829
vt 0.7607 -0.4829
vt 0.6826 -0.4829
vt 0.7227 -0.6294
vt 0.6543 -0.5894
vt 0.5688 -0.5386
vt 0.7661 -0.6548
vt 0.7930 -0.6709
vt 0.5781 -0.6670
vt 0.6177 -0.7363
vt 0.5288 -0.5796
vt 0.4741 -0.4829
vt 0.4741 -0.5947
vt 0.4741 -0.6958
vt 0.4194 -0.5796
vt 0.4741 -0.7759
vt 0.3701 -0.6670
vt 0.3794 -0.5386
vt 0.6426 -0.7808
vt 0.4741 -0.8271
vt 0.8076 -0.6807
vt 0.6582 -0.8086
vt 0.4741 -0.8589
vt 0.7856 -0.8096
vt 0.8667 -0.6553
vt 0.6689 -0.8296
vt 0.4749 -0.8823
vt 0.4753 -0.9111
vt 0.6421 -0.8838
vt 0.3308 -0.7363
vt 0.3057 -0.7808
vt 0.2900 -0.8086
vt 0.2937 -0.5894
vt 0.2260 -0.6294
vt 0.3647 -0.4829
vt 0.2659 -0.4829
vt 0.3794 -0.4270
vt 0.1824 -0.6548
vt 0.1875 -0.4829
vt 0.2937 -0.3765
vt 0.4194 -0.3860
vt 0.4741 -0.3711
vt 0.3701 -0.2986
vt 0.1553 -0.6709
vt 0.2810 -0.8247
vt 0.1343 -0.6836
vt 0.1594 -0.8032
vt 0.2979 -0.8833
vt 0.0808 -0.6479
vn -0.0006 -0.8443 0.5359
vn -0.3816 -0.8429 0.3793
vn -0.1531 -0.9411 0.3015
vn -0.5479 -0.8363 0.0201
vn -0.2805 -0.9474 0.1542
vn -0.4649 -0.4567 0.7585
vn 0.0122 -0.4709 0.8821
vn -0.0061 -0.0386 0.9992
vn -0.7643 -0.4657 0.4461
vn -0.8866 -0.4624 0.0144
vn -0.5227 -0.0634 0.8502
vn -0.8590 -0.0698 0.5073
vn -0.9987 -0.0490 0.0125
vn -0.0139 0.3460 0.9381
vn -0.4615 0.2943 0.8369
vn -0.8139 0.3126 0.4898
vn -0.9530 0.3026 0.0148
vn -0.4159 0.6082 0.6761
vn -0.7034 0.5825 0.4074
vn 0.0137 0.5847 0.8111
vn 0.3974 0.6064 0.6887
vn 0.0168 0.7631 0.6460
vn 0.4746 0.3088 0.8242
vn 0.5231 -0.0728 0.8491
vn 0.3030 0.7858 0.5391
vn 0.7045 0.5849 0.4019
vn 0.5175 0.7848 0.3410
vn 0.1882 0.9411 0.2810
vn 0.8138 0.3043 0.4951
vn 0.2721 0.9463 0.1745
vn 0.3288 0.9443 0.0135
vn 0.4465 -0.4531 0.7716
vn 0.3814 -0.8429 0.3794
vn 0.1523 -0.9412 0.3015
vn 0.5481 -0.8361 0.0201
vn 0.2795 -0.9478 0.1537
vn 0.8627 -0.0569 0.5024
vn 0.7658 -0.4733 0.4353
vn 0.8865 -0.4625 0.0149
vn 0.9987 -0.0489 0.0164
vn 0.9530 0.3027 0.0131
vn 0.8171 0.5764 0.0141
vn 0.6046 0.7963 0.0178
vn 0.7116 0.5825 -0.3928
vn 0.5237 0.7751 -0.3534
vn 0.2827 0.9479 -0.1471
vn 0.8204 0.3131 -0.4784
vn 0.8669 -0.0691 -0.4937
vn 0.3239 0.7842 -0.5292
vn 0.4156 0.6086 -0.6759
vn 0.1701 0.9468 -0.2733
vn -0.0006 0.9999 0.0146
vn 0.0009 0.9461 -0.3239
vn -0.0178 0.7632 -0.6459
vn -0.1823 0.9447 -0.2726
vn -0.0148 0.5847 -0.8111
vn -0.3041 0.7857 -0.5387
vn -0.2828 0.9462 -0.1572
vn 0.4613 0.2942 -0.8371
vn 0.0131 0.3462 -0.9381
vn 0.7711 -0.4679 -0.4318
vn 0.5214 -0.0643 -0.8509
vn 0.0054 -0.0385 -0.9992
vn 0.3860 -0.8485 -0.3621
vn 0.2805 -0.9512 -0.1285
vn 0.4653 -0.4564 -0.7585
vn -0.0131 -0.4711 -0.8820
vn -0.0006 -0.8506 -0.5258
vn 0.1370 -0.9527 -0.2712
vn -0.3979 0.6062 -0.6886
vn -0.4741 0.3098 -0.8242
vn -0.5243 -0.0731 -0.8484
vn -0.5239 0.7856 -0.3292
vn -0.7128 0.5850 -0.3868
vn -0.3323 0.9429 0.0212
vn -0.6029 0.7977 0.0096
vn -0.2797 0.9464 0.1616
vn -0.8211 0.3036 -0.4833
vn -0.8176 0.5755 0.0186
vn -0.5168 0.7754 0.3629
vn -0.1768 0.9433 0.2808
vn -0.0023 0.9428 0.3334
vn -0.3250 0.7840 0.5288
vn -0.8699 -0.0573 -0.4899
vn -0.4468 -0.4532 -0.7714
vn -0.7726 -0.4743 -0.4220
vn -0.3862 -0.8485 -0.3619
vn -0.1378 -0.9526 -0.2712
vn -0.2815 -0.9508 -0.1290
s 1
f 1/1/1 2/2/2 3/3/3
f 2/2/2 4/4/4 3/5/5
f 1/1/1 5/6/6 2/2/2
f 1/1/1 6/7/7 5/6/6
f 5/6/6 6/7/7 7/8/8
f 2/2/2 8/9/9 4/4/4
f 2/2/2 5/6/6 8/9/9
f 8/9/9 9/10/10 4/4/4
f 7/8/8 10/11/11 5/6/6
f 8/9/9 5/6/6 10/11/11
f 9/10/10 8/9/9 11/12/12
f 11/12/12 12/13/13 9/10/10
f 10/11/11 11/12/12 8/9/9
f 10/11/11 7/8/8 13/14/14
f 11/12/12 10/11/11 14/15/15
f 13/14/14 14/15/15 10/11/11
f 14/15/15 15/16/16 11/12/12
f 12/13/13 11/12/12 15/16/16
f 15/16/16 16/17/17 12/13/13
f 15/16/16 14/15/15 17/18/18
f 16/17/17 15/16/16 18/19/19
f 17/18/18 18/19/19 15/16/16
f 14/15/15 13/14/14 19/20/20
f 19/20/20 17/18/18 14/15/15
f 20/21/21 19/20/20 13/14/14
f 17/18/18 19/20/20 21/22/22
f 13/14/14 22/23/23 20/21/21
f 22/23/23 13/14/14 7/8/8
f 7/8/8 23/24/24 22/23/23
f 19/20/20 20/21/21 24/25/25
f 24/25/25 21/22/22 19/20/20
f 25/26/26 20/21/21 22/23/23
f 26/27/27 24/25/25 20/21/21
f 20/21/21 25/26/26 26/27/27
f 21/22/22 24/25/25 27/28/28
f 22/23/23 28/29/29 25/26/26
f 28/29/29 22/23/23 23/24/24
f 29/30/30 27/28/28 24/25/25
f 24/25/25 26/27/27 29/30/30
f 23/24/24 7/8/8 6/7/7
f 30/31/31 29/30/30 26/27/27
f 6/7/7 31/32/32 23/24/24
f 31/32/32 6/7/7 1/1/1
f 32/33/33 1/1/1 3/34/34
f 32/33/33 31/32/32 1/1/1
f 33/35/35 32/33/33 3/36/36
f 34/37/37 23/24/24 31/32/32
f 23/24/24 34/37/37 28/29/29
f 32/33/33 35/38/38 31/32/32
f 33/35/35 35/38/38 32/33/33
f 31/32/32 35/38/38 34/37/37
f 33/35/35 36/39/39 35/38/38
f 35/38/38 36/39/39 37/40/40
f 37/40/40 34/37/37 35/38/38
f 34/37/37 37/40/40 38/41/41
f 38/41/41 28/29/29 34/37/37
f 28/29/29 38/41/41 39/42/42
f 39/42/42 25/26/26 28/29/29
f 25/26/26 39/42/42 40/43/43
f 40/43/43 26/27/27 25/26/26
f 26/27/27 40/43/43 30/31/31
f 41/44/44 39/42/42 38/41/41
f 42/45/45 40/43/43 39/42/42
f 39/42/42 41/44/44 42/45/45
f 43/46/46 30/31/31 40/43/43
f 40/43/43 42/45/45 43/46/46
f 38/41/41 44/47/47 41/44/44
f 44/47/47 38/41/41 37/40/40
f 37/40/40 45/48/48 44/47/47
f 46/49/49 42/45/45 41/44/44
f 47/50/50 41/44/44 44/47/47
f 41/44/44 47/50/50 46/49/49
f 48/51/51 43/46/46 42/45/45
f 42/45/45 46/49/49 48/51/51
f 30/31/31 43/46/46 49/52/52
f 43/46/46 48/51/51 49/52/52
f 29/30/30 30/31/31 49/52/52
f 27/28/28 29/30/30 49/52/52
f 50/53/53 48/51/51 46/49/49
f 48/51/51 50/53/53 49/52/52
f 46/49/49 51/54/54 50/53/53
f 51/54/54 46/49/49 47/50/50
f 52/55/55 50/53/53 51/54/54
f 50/53/53 52/55/55 49/52/52
f 47/50/50 53/56/56 51/54/54
f 51/54/54 54/57/57 52/55/55
f 54/57/57 51/54/54 53/56/56
f 55/58/58 52/55/55 54/57/57
f 52/55/55 55/58/58 49/52/52
f 53/56/56 47/50/50 56/59/59
f 44/47/47 56/59/59 47/50/50
f 56/59/59 44/47/47 45/48/48
f 45/48/48 37/40/40 36/39/39
f 56/59/59 57/60/60 53/56/56
f 36/39/39 58/61/61 45/48/48
f 58/61/61 36/39/39 33/35/35
f 45/48/48 59/62/62 56/59/59
f 59/62/62 45/48/48 58/61/61
f 57/60/60 56/59/59 59/62/62
f 59/62/62 60/63/63 57/60/60
f 61/64/64 58/61/61 33/35/35
f 61/64/64 33/35/35 3/65/65
f 58/61/61 62/66/66 59/62/62
f 61/64/64 62/66/66 58/61/61
f 60/63/63 59/62/62 62/66/66
f 62/66/66 63/67/67 60/63/63
f 64/68/68 63/67/67 62/66/66
f 64/68/68 62/66/66 61/64/64
f 64/68/68 61/64/64 3/69/69
f 65/70/70 53/56/56 57/60/60
f 53/56/56 65/70/70 54/57/57
f 57/60/60 66/71/71 65/70/70
f 66/71/71 57/60/60 60/63/63
f 60/63/63 67/72/72 66/71/71
f 68/73/73 54/57/57 65/70/70
f 54/57/57 68/73/73 55/58/58
f 69/74/74 65/70/70 66/71/71
f 65/70/70 69/74/74 68/73/73
f 70/75/75 55/58/58 68/73/73
f 55/58/58 70/75/75 49/52/52
f 68/73/73 71/76/76 70/75/75
f 71/76/76 68/73/73 69/74/74
f 70/75/75 72/77/77 49/52/52
f 72/77/77 70/75/75 71/76/76
f 66/71/71 73/78/78 69/74/74
f 73/78/78 66/71/71 67/72/72
f 69/74/74 74/79/79 71/76/76
f 74/79/79 69/74/74 73/78/78
f 71/76/76 75/80/80 72/77/77
f 75/80/80 71/76/76 74/79/79
f 72/77/77 76/81/81 49/52/52
f 76/81/81 72/77/77 75/80/80
f 76/81/81 77/82/82 49/52/52
f 77/82/82 27/28/28 49/52/52
f 27/28/28 77/82/82 21/22/22
f 77/82/82 76/81/81 78/83/83
f 78/83/83 21/22/22 77/82/82
f 75/80/80 78/83/83 76/81/81
f 21/22/22 78/83/83 17/18/18
f 18/19/19 17/18/18 78/83/83
f 78/83/83 75/80/80 18/19/19
f 74/79/79 18/19/19 75/80/80
f 18/19/19 74/79/79 16/17/17
f 73/78/78 16/17/17 74/79/79
f 16/17/17 73/78/78 79/84/84
f 79/84/84 12/13/13 16/17/17
f 67/72/72 79/84/84 73/78/78
f 67/72/72 60/63/63 63/67/67
f 63/67/67 80/85/85 67/72/72
f 79/84/84 67/72/72 80/85/85
f 80/85/85 63/67/67 64/68/68
f 80/85/85 81/86/86 79/84/84
f 12/13/13 79/84/84 81/86/86
f 81/86/86 9/10/10 12/13/13
f 4/4/4 9/10/10 81/86/86
f 82/87/87 80/85/85 64/68/68
f 82/87/87 81/86/86 80/85/85
f 4/4/4 81/86/86 82/87/87
f 82/87/87 64/68/68 3/88/88
f 4/4/4 82/87/87 3/89/89
