# Blender v2.78 (sub 0) OBJ File: ''
# www.blender.org
mtllib left_kidney.mtl
o mesh002.001
v 1.038150 -0.761749 1.144750
v 1.259150 -0.644551 1.195750
v 1.257950 -0.371151 1.250250
v 1.035750 -0.253952 1.253750
v 0.814850 -0.371151 1.202750
v 0.816050 -0.644551 1.148450
v 0.779450 0.332050 0.127350
v 0.835550 0.136650 -0.296250
v 1.058950 0.761650 -0.098550
v 0.945450 0.371048 -0.821150
v 1.113850 1.386650 -0.531850
v 0.487650 -0.332050 -0.443950
v 1.006450 1.269550 -0.970150
v 0.769650 1.738251 -0.738150
v 0.617050 1.269551 -1.331450
v 0.458350 1.738251 -0.996950
v 0.172650 1.503849 -1.365550
v -0.027450 1.738251 -1.031150
v -0.737950 1.074249 -0.887150
v 0.276450 0.449249 -1.353350
v 0.018850 -0.292949 -1.067750
v -0.432750 0.761650 -1.375350
v -0.759950 0.019551 -1.158050
v -1.133450 0.410149 -0.602650
v -0.076350 -0.878952 -0.795550
v -0.842950 -0.722652 -0.829750
v -1.318950 -0.449249 -0.260850
v 0.521850 -1.347652 0.078450
v 0.564550 -0.566452 0.000350
v -0.100750 -1.699249 -0.098550
v 0.681750 -0.917950 0.654650
v 0.565750 -0.292950 0.399550
v 0.332650 -1.699249 0.582050
v 0.394850 -1.425751 0.919850
v -0.151950 -1.699249 0.975650
v -0.086050 -1.855450 0.486850
v -0.547550 -1.816452 0.491650
v -0.752550 -1.699249 0.834650
v -0.779450 -1.660152 -0.036250
v -1.189550 -1.269550 0.372650
v -1.221350 -0.019550 0.586850
v -1.069950 -0.917950 1.058650
v -1.018750 0.722649 0.179850
v -0.632950 0.175751 1.030650
v -0.532850 1.503849 -0.262150
v -0.752550 -1.386750 1.181650
v -0.503550 -0.605450 1.375350
v -0.337550 -1.308651 1.332250
v 0.164150 -1.152352 1.189650
v 0.304550 -0.644551 1.192650
v 0.181250 0.097648 0.932650
v 0.531650 0.097649 0.387350
v -0.498650 0.800751 0.582050
v 0.244750 0.683548 0.516750
v 0.708650 1.347649 0.101650
v -0.003050 1.582050 0.038250
v 0.775750 1.699249 -0.382950
v 0.379050 1.855450 -0.356050
v 0.045750 1.855450 -0.653950
v 0.863650 -0.449249 0.555150
v 0.885650 -0.175751 0.601550
v 0.741550 -0.058651 0.374450
v 0.708650 -0.371151 0.331150
v 1.105350 -0.019550 0.482550
v 0.939250 0.097649 0.195650
v 1.318950 -0.136749 0.337250
v 1.049150 -0.019550 -0.013050
v 1.296950 -0.449249 0.350650
v 1.017450 -0.332050 -0.055750
v 1.068650 -0.566452 0.383650
v 0.873350 -0.449249 0.122450
vt 0.5801 -0.4045
vt 0.5928 -0.3970
vt 0.5928 -0.3823
vt 0.5801 -0.3755
vt 0.5674 -0.3828
vt 0.5674 -0.3972
vt 0.3037 -0.0972
vt 0.3257 -0.0992
vt 0.3064 -0.0674
vt 0.3416 -0.0826
vt 0.3303 -0.0381
vt 0.3457 -0.1248
vt 0.3491 -0.0475
vt 0.3550 -0.0227
vt 0.3699 -0.0519
vt 0.3757 -0.0274
vt 0.3877 -0.0471
vt 0.4104 -0.0392
vt 0.4363 -0.0713
vt 0.3755 -0.0852
vt 0.3789 -0.1172
vt 0.4082 -0.0788
vt 0.4094 -0.1121
vt 0.4358 -0.1098
vt 0.3757 -0.1436
vt 0.4053 -0.1432
vt 0.4341 -0.1519
vt 0.3472 -0.1796
vt 0.3320 -0.1450
vt 0.3733 -0.1838
vt 0.3149 -0.1840
vt 0.3108 -0.1458
vt 0.3521 -0.2029
vt 0.3376 -0.2136
vt 0.3665 -0.2261
vt 0.3696 -0.2042
vt 0.3870 -0.2065
vt 0.4070 -0.2185
vt 0.4028 -0.1873
vt 0.4338 -0.1958
vt 0.4629 -0.1501
vt 0.4678 -0.1853
vt 0.4678 -0.1176
vt 0.4910 -0.1489
vt 0.4646 -0.2183
vt 0.4768 -0.0804
vt 0.4709 -0.0395
vt 0.4832 -0.2013
vt 0.5039 -0.2195
vt 0.4951 -0.1766
vt 0.4983 -0.1992
vt 0.5298 -0.2089
vt 0.5176 -0.1957
vt 0.5259 -0.1771
vt 0.5488 -0.1849
vt 0.5239 -0.1477
vt 0.5513 -0.1560
vt 0.5459 -0.1367
vt 0.4946 -0.1215
vt 0.5259 -0.1188
vt 0.5562 -0.1176
vt 0.5596 -0.0914
vt 0.5322 -0.0808
vt 0.5493 -0.0549
vt 0.5005 -0.0804
vt 0.5259 -0.0567
vt 0.5244 -0.0395
vt 0.5088 -0.0595
vt 0.5044 -0.0302
vt 0.4917 -0.0527
vt 0.5894 -0.5098
vt 0.5752 -0.4780
vt 0.5776 -0.5117
vt 0.5894 -0.4714
vt 0.6021 -0.5093
vt 0.5854 -0.4463
vt 0.5737 -0.4604
vt 0.5654 -0.4553
vt 0.5713 -0.4236
vt 0.6006 -0.4153
vt 0.6045 -0.4624
vt 0.6147 -0.5103
vt 0.6050 -0.4343
vt 0.6187 -0.4597
vt 0.6279 -0.5112
vt 0.6211 -0.4333
vt 0.6255 -0.4124
vt 0.6313 -0.4656
vt 0.6406 -0.5112
vt 0.6353 -0.4387
vt 0.6548 -0.4131
vt 0.6602 -0.4377
vt 0.6431 -0.4683
vt 0.6538 -0.5107
vt 0.6553 -0.4756
vt 0.6450 -0.4468
vt 0.6553 -0.4561
vt 0.6621 -0.4592
vn -0.1040 -0.2015 0.9740
vn -0.1210 -0.1944 0.9734
vn -0.1014 -0.2055 0.9734
vn -0.1041 -0.2092 0.9723
vn -0.1067 -0.2055 0.9728
vn -0.0863 -0.1944 0.9771
vn 0.8639 -0.4039 0.3007
vn 0.8829 -0.4674 0.0456
vn 0.9630 -0.2652 0.0474
vn 0.8290 -0.3793 -0.4111
vn 0.9592 0.1531 -0.2379
vn 0.7570 -0.4544 -0.4697
vn 0.8261 0.1945 -0.5289
vn 0.6205 0.5878 -0.5191
vn 0.4597 0.1989 -0.8655
vn 0.3615 0.6852 -0.6323
vn -0.0742 0.4857 -0.8710
vn -0.3412 0.6615 -0.6678
vn -0.7810 0.4697 -0.4116
vn 0.2732 -0.2643 -0.9249
vn 0.3030 -0.4676 -0.8304
vn -0.4121 0.1127 -0.9041
vn -0.5022 -0.1696 -0.8480
vn -0.9198 0.2354 -0.3139
vn 0.3019 -0.5159 -0.8017
vn -0.4779 -0.4458 -0.7569
vn -0.9622 -0.1140 -0.2472
vn 0.8133 -0.4648 -0.3501
vn 0.9830 -0.0183 -0.1825
vn 0.1980 -0.8206 -0.5362
vn 0.9823 -0.1785 -0.0575
vn 0.9848 0.1419 -0.1002
vn 0.6243 -0.7738 0.1072
vn 0.7449 -0.5791 0.3313
vn 0.1415 -0.9193 0.3672
vn 0.1398 -0.9901 0.0094
vn -0.2373 -0.9714 0.0116
vn -0.3920 -0.9108 0.1296
vn -0.4657 -0.7768 -0.4240
vn -0.9096 -0.4153 0.0083
vn -0.8833 0.2536 0.3942
vn -0.7921 -0.0843 0.6046
vn -0.8039 0.5167 0.2946
vn -0.2808 0.4764 0.8332
vn -0.5540 -0.6234 0.5519
vn -0.6368 0.7484 0.1853
vn -0.3768 0.8915 -0.2515
vn -0.4913 -0.4615 0.7387
vn 0.1260 -0.6434 0.7551
vn -0.1631 0.1712 0.9716
vn 0.0292 -0.3701 0.9285
vn 0.5837 -0.3237 0.7447
vn 0.4510 -0.2533 0.8558
vn 0.5837 0.1467 0.7986
vn 0.8442 0.1021 0.5262
vn 0.5131 0.4093 0.7545
vn 0.8623 0.2408 0.4455
vn 0.7721 0.1655 0.6136
vn -0.2384 0.6132 0.7531
vn 0.4135 0.3661 0.8336
vn 0.6188 0.0750 0.7820
vn 0.6844 0.1494 0.7136
vn 0.4871 0.4606 0.7420
vn 0.7610 0.5110 0.3996
vn -0.1359 0.7570 0.6391
vn 0.5424 0.7709 0.3340
vn 0.3881 0.9213 -0.0253
vn 0.0994 0.9490 0.2993
vn 0.1025 0.9733 -0.2054
vn -0.2429 0.9695 -0.0342
vn -0.8749 0.4793 0.0696
vn -0.9745 0.0389 0.2209
vn -0.9970 0.0108 -0.0764
vn -0.7584 0.5472 0.3540
vn -0.0206 0.9566 0.2907
vn -0.0698 0.4101 0.9094
vn -0.4323 -0.0790 0.8983
vn 0.2649 -0.0963 0.9594
vn 0.2905 0.3156 0.9033
vn 0.6650 0.6331 0.3960
vn 0.1834 0.9361 0.3000
vn 0.8645 0.4615 0.1990
vn 0.5082 0.7827 0.3594
vn 0.8957 0.4088 -0.1751
vn 0.8631 -0.5005 -0.0669
vn 0.8252 0.3818 -0.4163
vn 0.7779 0.1995 -0.5959
vn 0.8057 -0.4943 -0.3263
vn 0.0329 -0.9711 -0.2362
vn 0.6195 -0.4714 -0.6276
vn 0.5047 -0.5205 -0.6888
vn 0.2877 -0.9526 -0.0987
vn -0.0124 -0.9581 -0.2862
vn -0.4954 -0.8324 -0.2486
vn -0.5807 -0.7965 -0.1685
vn 0.1015 -0.9865 -0.1283
vn -0.2183 -0.9162 0.3361
vn -0.1777 -0.8116 0.5566
usemtl Material__220.001
s 1
f 1/1/1 2/2/2 3/3/3
f 3/3/3 4/4/4 1/1/1
f 1/1/1 4/4/4 5/5/5
f 5/5/5 6/6/6 1/1/1
f 7/7/7 8/8/8 9/9/9
f 9/9/9 8/8/8 10/10/10
f 9/9/9 10/10/10 11/11/11
f 10/10/10 8/8/8 12/12/12
f 11/11/11 10/10/10 13/13/13
f 13/13/13 14/14/14 11/11/11
f 13/13/13 15/15/15 14/14/14
f 10/10/10 15/15/15 13/13/13
f 14/14/14 15/15/15 16/16/16
f 17/17/17 16/16/16 15/15/15
f 18/18/18 16/16/16 17/17/17
f 17/17/17 19/19/19 18/18/18
f 10/10/10 20/20/20 15/15/15
f 20/20/20 17/17/17 15/15/15
f 10/10/10 21/21/21 20/20/20
f 12/12/12 21/21/21 10/10/10
f 20/20/20 22/22/22 17/17/17
f 22/22/22 19/19/19 17/17/17
f 20/20/20 23/23/23 22/22/22
f 21/21/21 23/23/23 20/20/20
f 22/22/22 24/24/24 19/19/19
f 23/23/23 24/24/24 22/22/22
f 12/12/12 25/25/25 21/21/21
f 21/21/21 26/26/26 23/23/23
f 25/25/25 26/26/26 21/21/21
f 23/23/23 27/27/27 24/24/24
f 26/26/26 27/27/27 23/23/23
f 28/28/28 25/25/25 12/12/12
f 29/29/29 28/28/28 12/12/12
f 30/30/30 26/26/26 25/25/25
f 28/28/28 30/30/30 25/25/25
f 31/31/31 29/29/29 32/32/32
f 31/31/31 28/28/28 29/29/29
f 31/31/31 33/33/33 28/28/28
f 28/28/28 33/33/33 30/30/30
f 31/31/31 34/34/34 33/33/33
f 35/35/35 33/33/33 34/34/34
f 36/36/36 33/33/33 35/35/35
f 30/30/30 33/33/33 36/36/36
f 36/36/36 35/35/35 37/37/37
f 30/30/30 36/36/36 37/37/37
f 37/37/37 35/35/35 38/38/38
f 30/30/30 37/37/37 39/39/39
f 39/39/39 37/37/37 38/38/38
f 30/30/30 39/39/39 26/26/26
f 39/39/39 38/38/38 40/40/40
f 39/39/39 27/27/27 26/26/26
f 39/39/39 40/40/40 27/27/27
f 40/40/40 41/41/41 27/27/27
f 27/27/27 41/41/41 24/24/24
f 40/40/40 42/42/42 41/41/41
f 24/24/24 41/41/41 43/43/43
f 24/24/24 43/43/43 19/19/19
f 42/42/42 44/44/44 41/41/41
f 41/41/41 44/44/44 43/43/43
f 42/42/42 40/40/40 38/45/45
f 19/19/19 43/43/43 45/46/46
f 19/19/19 45/46/46 18/47/47
f 42/42/42 38/45/45 46/48/48
f 35/49/49 46/48/48 38/45/45
f 42/42/42 46/48/48 47/50/50
f 42/42/42 47/50/50 44/44/44
f 48/51/51 46/48/48 35/49/49
f 47/50/50 46/48/48 48/51/51
f 48/51/51 35/49/49 34/52/52
f 48/51/51 34/52/52 49/53/53
f 50/54/54 48/51/51 49/53/53
f 50/54/54 49/53/53 34/52/52
f 47/50/50 48/51/51 50/54/54
f 50/54/54 34/52/52 31/55/55
f 51/56/56 47/50/50 50/54/54
f 50/54/54 31/55/55 51/56/56
f 51/56/56 44/44/44 47/50/50
f 51/56/56 31/55/55 32/57/57
f 51/56/56 32/57/57 52/58/58
f 51/56/56 53/59/59 44/44/44
f 43/43/43 44/44/44 53/59/59
f 43/43/43 53/59/59 45/46/46
f 51/56/56 52/58/58 54/60/60
f 54/60/60 53/59/59 51/56/56
f 54/60/60 52/58/58 7/61/61
f 54/60/60 7/61/61 9/62/62
f 54/60/60 9/62/62 55/63/63
f 53/59/59 54/60/60 55/63/63
f 55/63/63 9/62/62 11/64/64
f 45/46/46 53/59/59 56/65/65
f 53/59/59 55/63/63 56/65/65
f 55/63/63 11/64/64 57/66/66
f 14/67/67 57/66/66 11/64/64
f 58/68/68 55/63/63 57/66/66
f 14/67/67 58/68/68 57/66/66
f 56/65/65 55/63/63 58/68/68
f 16/69/69 58/68/68 14/67/67
f 45/46/46 56/65/65 59/70/70
f 59/70/70 56/65/65 58/68/68
f 16/69/69 59/70/70 58/68/68
f 18/47/47 45/46/46 59/70/70
f 59/70/70 16/69/69 18/47/47
f 5/71/71 60/72/72 6/73/73
f 61/74/74 60/72/72 5/71/71
f 4/75/75 61/74/74 5/71/71
f 60/72/72 61/74/74 62/76/76
f 62/76/76 63/77/77 60/72/72
f 63/77/77 62/76/76 32/78/78
f 32/78/78 62/76/76 52/79/79
f 7/80/80 52/79/79 62/76/76
f 64/81/81 61/74/74 4/75/75
f 3/82/82 64/81/81 4/75/75
f 65/83/83 62/76/76 61/74/74
f 61/74/74 64/81/81 65/83/83
f 62/76/76 65/83/83 7/80/80
f 66/84/84 64/81/81 3/82/82
f 66/84/84 65/83/83 64/81/81
f 2/85/85 66/84/84 3/82/82
f 65/83/83 67/86/86 7/80/80
f 67/86/86 65/83/83 66/84/84
f 7/80/80 67/86/86 8/87/87
f 68/88/88 66/84/84 2/85/85
f 1/89/89 68/88/88 2/85/85
f 69/90/90 67/86/86 66/84/84
f 67/86/86 69/90/90 8/87/87
f 69/90/90 66/84/84 68/88/88
f 8/87/87 69/90/90 12/91/91
f 69/90/90 29/92/92 12/91/91
f 70/93/93 68/88/88 1/89/89
f 70/93/93 69/90/90 68/88/88
f 6/94/94 70/93/93 1/89/89
f 60/95/95 70/93/93 6/94/94
f 71/96/96 69/90/90 70/93/93
f 60/95/95 71/96/96 70/93/93
f 69/90/90 71/96/96 29/92/92
f 63/97/97 71/96/96 60/95/95
f 71/96/96 63/97/97 29/92/92
f 29/92/92 63/97/97 32/98/98
