# Blender v2.78 (sub 0) OBJ File: ''
# www.blender.org
mtllib right_kidney.mtl
o mesh003.001
v -1.157250 -0.624947 1.209700
v -1.180450 -0.859348 1.097400
v -0.972850 -0.976547 0.996700
v -0.926550 -0.507748 1.221900
v -0.719050 -0.624947 1.121800
v -0.743450 -0.859348 1.008900
v -0.725050 0.312553 0.247800
v -0.992450 0.781254 0.157500
v -0.831250 0.234352 -0.201400
v -0.968050 0.585953 -0.640800
v -1.040050 1.484352 -0.107400
v -0.529750 -0.195347 -0.488300
v -0.977750 1.484352 -0.566400
v -0.689650 1.875053 -0.257600
v -0.621350 1.562554 -0.950900
v -0.401650 1.914051 -0.537100
v -0.164850 1.796852 -0.975300
v 0.076950 1.914051 -0.616400
v 0.750750 1.210953 -0.701900
v -0.343050 0.781254 -1.207300
v -0.113550 -0.039047 -1.129100
v 0.382050 1.054653 -1.219500
v 0.675050 0.234352 -1.221900
v 1.119350 0.468754 -0.633500
v -0.037850 -0.664047 -1.014400
v 0.728750 -0.585949 -1.095000
v -0.593250 -1.328148 -0.227000
v -0.585950 -0.546848 -0.108600
v -0.671450 -1.015648 0.454100
v -0.534650 -0.390648 0.339400
v -0.014650 -1.640648 -0.545600
v -0.386950 -1.757748 0.162400
v -0.401650 -1.601547 0.554200
v 0.130650 -1.914047 0.493200
v 0.009750 -1.953148 -0.015800
v 0.469950 -1.914047 -0.046400
v 0.716550 -1.874947 0.299100
v 0.670150 -1.640648 -0.537100
v 1.138950 -1.406246 -0.097600
v 1.273150 -0.429649 -0.518800
v 1.278050 -0.234348 0.410200
v 1.102350 -1.210949 0.662800
v 1.097350 0.585953 0.213600
v 0.745850 -0.117150 0.940600
v 0.631150 1.484352 0.022000
v 0.765350 -1.679649 0.701900
v 0.589550 -0.976547 1.099900
v 0.372350 -1.640648 0.910000
v -0.129450 -1.406246 0.858200
v -0.231950 -0.898449 0.997900
v -0.078150 -0.156246 0.910000
v -0.473650 0.000053 0.421200
v 0.616450 0.585953 0.670200
v -0.136750 0.507851 0.650600
v -0.582250 1.328152 0.462700
v 0.135550 1.523453 0.385800
v -0.667750 1.757851 0.079400
v -0.260050 1.875053 0.105000
v 0.045150 1.953152 -0.216000
v -0.827650 -0.546848 0.482200
v -0.826450 -0.273449 0.595700
v -0.694550 -0.156246 0.388200
v -0.687250 -0.390648 0.273400
v -1.044950 -0.117149 0.535900
v -0.894750 0.078152 0.274700
v -1.278050 -0.195347 0.390600
v -1.031450 0.000053 0.051300
v -1.276850 -0.468746 0.329600
v -1.024150 -0.273449 -0.062200
v -1.054650 -0.585949 0.311300
v -0.875250 -0.429649 0.064700
vt 0.5928 -0.3823
vt 0.5928 -0.3970
vt 0.5801 -0.4045
vt 0.5801 -0.3755
vt 0.5674 -0.3828
vt 0.5674 -0.3972
vt 0.3037 -0.0972
vt 0.3064 -0.0674
vt 0.3257 -0.0992
vt 0.3416 -0.0826
vt 0.3303 -0.0381
vt 0.3457 -0.1248
vt 0.3491 -0.0475
vt 0.3550 -0.0227
vt 0.3699 -0.0519
vt 0.3757 -0.0274
vt 0.3877 -0.0471
vt 0.4104 -0.0392
vt 0.4363 -0.0713
vt 0.3755 -0.0852
vt 0.3789 -0.1172
vt 0.4082 -0.0788
vt 0.4094 -0.1121
vt 0.4358 -0.1098
vt 0.3757 -0.1436
vt 0.4053 -0.1432
vt 0.3472 -0.1796
vt 0.3320 -0.1450
vt 0.3149 -0.1840
vt 0.3108 -0.1458
vt 0.3733 -0.1838
vt 0.3521 -0.2029
vt 0.3376 -0.2136
vt 0.3665 -0.2261
vt 0.3696 -0.2042
vt 0.3870 -0.2065
vt 0.4070 -0.2185
vt 0.4028 -0.1873
vt 0.4338 -0.1958
vt 0.4341 -0.1519
vt 0.4629 -0.1501
vt 0.4678 -0.1853
vt 0.4678 -0.1176
vt 0.4910 -0.1489
vt 0.4646 -0.2183
vt 0.4768 -0.0804
vt 0.4709 -0.0395
vt 0.4832 -0.2013
vt 0.5039 -0.2195
vt 0.4951 -0.1766
vt 0.4983 -0.1992
vt 0.5298 -0.2089
vt 0.5176 -0.1957
vt 0.5259 -0.1771
vt 0.5488 -0.1849
vt 0.5239 -0.1477
vt 0.5513 -0.1560
vt 0.5459 -0.1367
vt 0.4946 -0.1215
vt 0.5259 -0.1188
vt 0.5562 -0.1176
vt 0.5596 -0.0914
vt 0.5322 -0.0808
vt 0.5493 -0.0549
vt 0.5005 -0.0804
vt 0.5259 -0.0567
vt 0.5244 -0.0395
vt 0.5088 -0.0595
vt 0.5044 -0.0302
vt 0.4917 -0.0527
vt 0.5894 -0.5098
vt 0.5776 -0.5117
vt 0.5752 -0.4780
vt 0.5894 -0.4714
vt 0.6021 -0.5093
vt 0.5854 -0.4463
vt 0.5737 -0.4604
vt 0.5654 -0.4553
vt 0.5713 -0.4236
vt 0.6006 -0.4153
vt 0.6045 -0.4624
vt 0.6147 -0.5103
vt 0.6050 -0.4343
vt 0.6187 -0.4597
vt 0.6279 -0.5112
vt 0.6211 -0.4333
vt 0.6255 -0.4124
vt 0.6313 -0.4656
vt 0.6406 -0.5112
vt 0.6353 -0.4387
vt 0.6548 -0.4131
vt 0.6602 -0.4377
vt 0.6431 -0.4683
vt 0.6538 -0.5107
vt 0.6553 -0.4756
vt 0.6450 -0.4468
vt 0.6553 -0.4561
vt 0.6621 -0.4592
vn 0.1776 -0.4401 0.8802
vn 0.1789 -0.4394 0.8803
vn 0.1778 -0.4405 0.8800
vn 0.1766 -0.4403 0.8803
vn 0.1768 -0.4407 0.8801
vn 0.1791 -0.4420 0.8790
vn -0.8564 -0.4350 0.2782
vn -0.9697 -0.2313 0.0785
vn -0.9028 -0.4297 0.0204
vn -0.8844 -0.2313 -0.4053
vn -0.9658 0.2419 -0.0937
vn -0.8225 -0.2950 -0.4863
vn -0.8545 0.3531 -0.3809
vn -0.6195 0.7266 -0.2972
vn -0.5268 0.4277 -0.7345
vn -0.3686 0.8445 -0.3885
vn 0.0217 0.7005 -0.7133
vn 0.3349 0.8056 -0.4887
vn 0.7768 0.5182 -0.3579
vn -0.3682 -0.0131 -0.9297
vn -0.4103 -0.2376 -0.8805
vn 0.3467 0.3139 -0.8839
vn 0.4130 0.0166 -0.9106
vn 0.9036 0.2575 -0.3423
vn -0.4185 -0.2829 -0.8630
vn 0.3772 -0.2787 -0.8832
vn -0.8674 -0.3418 -0.3618
vn -0.9935 0.0759 -0.0844
vn -0.9944 -0.1060 -0.0002
vn -0.9750 0.2196 0.0348
vn -0.2992 -0.6551 -0.6937
vn -0.6882 -0.7254 -0.0170
vn -0.7615 -0.6114 0.2152
vn -0.1717 -0.9738 0.1489
vn -0.2276 -0.9505 -0.2115
vn 0.2098 -0.9476 -0.2410
vn 0.3605 -0.9251 -0.1194
vn 0.3780 -0.6744 -0.6343
vn 0.8667 -0.4623 -0.1873
vn 0.9302 -0.0892 -0.3560
vn 0.9291 0.1059 0.3544
vn 0.8325 -0.2688 0.4845
vn 0.8610 0.3885 0.3282
vn 0.3796 0.2472 0.8915
vn 0.5664 -0.7656 0.3049
vn 0.7061 0.6458 0.2903
vn 0.4032 0.9101 -0.0954
vn 0.5349 -0.6537 0.5353
vn -0.1024 -0.8109 0.5762
vn 0.2589 -0.0828 0.9623
vn 0.0309 -0.5922 0.8052
vn -0.5428 -0.4604 0.7024
vn -0.4036 -0.4181 0.8138
vn -0.5010 -0.0146 0.8653
vn -0.7872 0.0188 0.6164
vn -0.4159 0.2408 0.8769
vn -0.8027 0.1757 0.5700
vn -0.7009 0.0508 0.7114
vn 0.3388 0.3966 0.8532
vn -0.3211 0.1651 0.9325
vn -0.5429 -0.0874 0.8353
vn -0.6123 -0.0002 0.7906
vn -0.3905 0.3035 0.8691
vn -0.7073 0.4237 0.5659
vn 0.2473 0.5758 0.7793
vn -0.4650 0.7047 0.5358
vn -0.3231 0.9211 0.2173
vn -0.0269 0.8576 0.5135
vn -0.0751 0.9968 0.0264
vn 0.2814 0.9463 0.1594
vn 0.9148 0.3924 0.0954
vn 0.9853 -0.0208 -0.1698
vn 0.9916 -0.0639 0.1126
vn 0.7869 0.4521 0.4200
vn 0.0785 0.8619 0.5009
vn 0.2443 0.1357 0.9602
vn 0.4181 -0.3890 0.8209
vn -0.2222 -0.3417 0.9132
vn -0.2132 0.0960 0.9723
vn -0.5966 0.5353 0.5979
vn -0.1546 0.8351 0.5279
vn -0.8225 0.4334 0.3684
vn -0.4401 0.6894 0.5753
vn -0.8862 0.4631 0.0136
vn -0.9027 -0.4208 -0.0902
vn -0.8384 0.4897 -0.2394
vn -0.8203 0.3702 -0.4360
vn -0.8548 -0.3733 -0.3604
vn -0.1022 -0.8797 -0.4645
vn -0.7044 -0.2796 -0.6524
vn -0.5950 -0.3004 -0.7455
vn -0.4114 -0.8714 -0.2671
vn -0.0833 -0.8607 -0.5022
vn 0.4329 -0.7568 -0.4897
vn 0.4702 -0.7795 -0.4139
vn -0.1892 -0.9312 -0.3116
vn 0.1035 -0.9889 0.1065
vn -0.1473 -0.9286 0.3406
usemtl Material__221.001
s 1
f 1/1/1 2/2/2 3/3/3
f 3/3/3 4/4/4 1/1/1
f 5/5/5 4/4/4 3/3/3
f 3/3/3 6/6/6 5/5/5
f 7/7/7 8/8/8 9/9/9
f 8/8/8 10/10/10 9/9/9
f 8/8/8 11/11/11 10/10/10
f 10/10/10 12/12/12 9/9/9
f 11/11/11 13/13/13 10/10/10
f 13/13/13 11/11/11 14/14/14
f 13/13/13 14/14/14 15/15/15
f 10/10/10 13/13/13 15/15/15
f 14/14/14 16/16/16 15/15/15
f 17/17/17 15/15/15 16/16/16
f 18/18/18 17/17/17 16/16/16
f 17/17/17 18/18/18 19/19/19
f 10/10/10 15/15/15 20/20/20
f 20/20/20 15/15/15 17/17/17
f 10/10/10 20/20/20 21/21/21
f 12/12/12 10/10/10 21/21/21
f 20/20/20 17/17/17 22/22/22
f 22/22/22 17/17/17 19/19/19
f 20/20/20 22/22/22 23/23/23
f 21/21/21 20/20/20 23/23/23
f 22/22/22 19/19/19 24/24/24
f 23/23/23 22/22/22 24/24/24
f 12/12/12 21/21/21 25/25/25
f 21/21/21 23/23/23 26/26/26
f 25/25/25 21/21/21 26/26/26
f 27/27/27 12/12/12 25/25/25
f 28/28/28 12/12/12 27/27/27
f 29/29/29 30/30/30 28/28/28
f 29/29/29 28/28/28 27/27/27
f 27/27/27 25/25/25 31/31/31
f 31/31/31 25/25/25 26/26/26
f 29/29/29 27/27/27 32/32/32
f 27/27/27 31/31/31 32/32/32
f 29/29/29 32/32/32 33/33/33
f 34/34/34 33/33/33 32/32/32
f 35/35/35 34/34/34 32/32/32
f 31/31/31 35/35/35 32/32/32
f 35/35/35 36/36/36 34/34/34
f 31/31/31 36/36/36 35/35/35
f 36/36/36 37/37/37 34/34/34
f 31/31/31 38/38/38 36/36/36
f 38/38/38 37/37/37 36/36/36
f 31/31/31 26/26/26 38/38/38
f 38/38/38 39/39/39 37/37/37
f 38/38/38 26/26/26 40/40/40
f 26/26/26 23/23/23 40/40/40
f 38/38/38 40/40/40 39/39/39
f 23/23/23 24/24/24 40/40/40
f 39/39/39 40/40/40 41/41/41
f 40/40/40 24/24/24 41/41/41
f 39/39/39 41/41/41 42/42/42
f 24/24/24 43/43/43 41/41/41
f 24/24/24 19/19/19 43/43/43
f 42/42/42 41/41/41 44/44/44
f 41/41/41 43/43/43 44/44/44
f 42/42/42 37/45/45 39/39/39
f 19/19/19 45/46/46 43/43/43
f 19/19/19 18/47/47 45/46/46
f 42/42/42 46/48/48 37/45/45
f 34/49/49 37/45/45 46/48/48
f 42/42/42 47/50/50 46/48/48
f 42/42/42 44/44/44 47/50/50
f 48/51/51 34/49/49 46/48/48
f 47/50/50 48/51/51 46/48/48
f 48/51/51 33/52/52 34/49/49
f 48/51/51 49/53/53 33/52/52
f 50/54/54 49/53/53 48/51/51
f 50/54/54 33/52/52 49/53/53
f 47/50/50 50/54/54 48/51/51
f 50/54/54 29/55/55 33/52/52
f 51/56/56 50/54/54 47/50/50
f 50/54/54 51/56/56 29/55/55
f 51/56/56 47/50/50 44/44/44
f 51/56/56 30/57/57 29/55/55
f 51/56/56 52/58/58 30/57/57
f 51/56/56 44/44/44 53/59/59
f 43/43/43 53/59/59 44/44/44
f 43/43/43 45/46/46 53/59/59
f 51/56/56 54/60/60 52/58/58
f 54/60/60 51/56/56 53/59/59
f 54/60/60 7/61/61 52/58/58
f 54/60/60 8/62/62 7/61/61
f 54/60/60 55/63/63 8/62/62
f 53/59/59 55/63/63 54/60/60
f 55/63/63 11/64/64 8/62/62
f 45/46/46 56/65/65 53/59/59
f 53/59/59 56/65/65 55/63/63
f 55/63/63 57/66/66 11/64/64
f 14/67/67 11/64/64 57/66/66
f 58/68/68 57/66/66 55/63/63
f 14/67/67 57/66/66 58/68/68
f 56/65/65 58/68/68 55/63/63
f 16/69/69 14/67/67 58/68/68
f 45/46/46 59/70/70 56/65/65
f 59/70/70 58/68/68 56/65/65
f 16/69/69 58/68/68 59/70/70
f 18/47/47 59/70/70 45/46/46
f 59/70/70 18/47/47 16/69/69
f 5/71/71 6/72/72 60/73/73
f 61/74/74 5/71/71 60/73/73
f 4/75/75 5/71/71 61/74/74
f 62/76/76 61/74/74 60/73/73
f 60/73/73 63/77/77 62/76/76
f 63/77/77 30/78/78 62/76/76
f 30/78/78 52/79/79 62/76/76
f 62/76/76 52/79/79 7/80/80
f 64/81/81 4/75/75 61/74/74
f 1/82/82 4/75/75 64/81/81
f 61/74/74 62/76/76 65/83/83
f 65/83/83 64/81/81 61/74/74
f 7/80/80 65/83/83 62/76/76
f 66/84/84 1/82/82 64/81/81
f 66/84/84 64/81/81 65/83/83
f 2/85/85 1/82/82 66/84/84
f 65/83/83 7/80/80 67/86/86
f 67/86/86 66/84/84 65/83/83
f 7/80/80 9/87/87 67/86/86
f 68/88/88 2/85/85 66/84/84
f 3/89/89 2/85/85 68/88/88
f 69/90/90 66/84/84 67/86/86
f 67/86/86 9/87/87 69/90/90
f 69/90/90 68/88/88 66/84/84
f 9/87/87 12/91/91 69/90/90
f 69/90/90 12/91/91 28/92/92
f 70/93/93 3/89/89 68/88/88
f 70/93/93 68/88/88 69/90/90
f 6/94/94 3/89/89 70/93/93
f 60/95/95 6/94/94 70/93/93
f 71/96/96 70/93/93 69/90/90
f 60/95/95 70/93/93 71/96/96
f 69/90/90 28/92/92 71/96/96
f 63/97/97 60/95/95 71/96/96
f 71/96/96 28/92/92 63/97/97
f 28/92/92 30/98/98 63/97/97
