# Blender v2.78 (sub 0) OBJ File: ''
# www.blender.org
o mesh00110
v 2.159482 2.661003 2.759149
v 2.507082 2.206803 2.368551
v 2.447582 2.704903 1.274850
v 2.058782 1.326703 3.384149
v 2.078882 3.246903 1.431051
v 1.337983 3.176103 -0.404952
v 1.523483 1.601403 3.735749
v 1.007083 3.620403 -0.326750
v 1.102383 2.770803 2.485749
v 1.457583 0.590003 4.634150
v 1.755483 -0.073397 4.477949
v -0.092717 3.403203 -0.248652
v 0.617683 3.723003 -2.201751
v 1.008383 3.107703 -2.162650
v 0.200282 1.954203 -3.412650
v -0.336817 3.701003 -2.006449
v -0.368617 2.186103 -3.647052
v -0.085417 0.518003 -4.154852
v -1.328117 2.643903 -3.529853
v -0.700617 0.541803 -4.428350
v 0.022082 -0.684697 -4.193949
v -1.130317 2.783003 -0.014250
v -0.595617 -1.018197 -4.545450
v 0.263683 -1.869097 -3.803351
v -1.086318 1.563603 2.290448
v -0.246517 -2.083897 -4.154852
v 0.471283 1.408503 3.735749
v 0.344283 -3.046997 -2.358050
v 0.792283 -2.688197 -2.162650
v 0.621383 0.043003 4.868551
v 1.113283 -3.569497 -0.326750
v 1.589383 -3.103197 -0.326750
v -0.732317 -3.049497 -2.358050
v 1.392883 -3.354697 2.212247
v 1.828683 -2.880997 2.056051
v 1.593083 -2.391497 3.540448
v 1.148683 -2.775997 3.852948
v 1.446583 -1.635897 4.399851
v -0.078117 -3.359597 2.016950
v -0.302717 -3.549997 -0.248652
v -1.596617 -2.612497 -0.326750
v 0.168483 -2.624697 3.774850
v -1.359818 -2.423297 1.743551
v 1.088883 -1.678597 4.712248
v 1.290283 -0.218697 4.946650
v 0.332083 -1.461397 4.712248
v -0.805617 -1.338697 3.891950
v -0.385717 0.587603 3.931051
v -1.921317 -0.974897 1.821649
v -1.765117 0.458803 2.016950
v -2.517018 -0.285997 -1.186152
v -2.136118 1.771103 -0.131449
v -1.787017 -2.220597 -2.123652
v -2.067817 2.350903 -1.811152
v -2.517018 0.368203 -2.904853
v -1.806617 2.587703 -3.139251
v -1.979918 -1.213597 -3.608050
v -2.126417 0.769503 -4.115850
v -1.940918 -0.518997 -4.350149
v -1.237717 -1.661597 -4.272051
v -1.469718 -0.524497 -4.662649
v -1.640517 1.008703 -4.311152
v 1.375783 -0.491197 0.884149
vt 0.8896 -0.2073
vt 0.9087 -0.1881
vt 0.9248 -0.2886
vt 0.8672 -0.1130
vt 0.9043 -0.2981
vt 0.9185 -0.4568
vt 0.8477 -0.1432
vt 0.9033 -0.4536
vt 0.8638 -0.2498
vt 0.8110 -0.0781
vt 0.7979 -0.0164
vt 0.8730 -0.4233
vt 0.8770 -0.5229
vt 0.8911 -0.5503
vt 0.8315 -0.6348
vt 0.8491 -0.5044
vt 0.8188 -0.6079
vt 0.7734 -0.6919
vt 0.8071 -0.5625
vt 0.7666 -0.6538
vt 0.7119 -0.7100
vt 0.8311 -0.4043
vt 0.7109 -0.6616
vt 0.6523 -0.6470
vt 0.8008 -0.2842
vt 0.6680 -0.6240
vt 0.8188 -0.1782
vt 0.6230 -0.5122
vt 0.6035 -0.5195
vt 0.7788 -0.1024
vt 0.5986 -0.3669
vt 0.5791 -0.3638
vt 0.6553 -0.5020
vt 0.6245 -0.1898
vt 0.6060 -0.1708
vt 0.6582 -0.0703
vt 0.6709 -0.1048
vt 0.7153 -0.0316
vt 0.6611 -0.2477
vt 0.6421 -0.3794
vt 0.6816 -0.3909
vt 0.6924 -0.1533
vt 0.6982 -0.2908
vt 0.7212 -0.0620
vt 0.7764 -0.0544
vt 0.7324 -0.1091
vt 0.7344 -0.1840
vt 0.7856 -0.1854
vt 0.7402 -0.2925
vt 0.7715 -0.2961
vt 0.7412 -0.4478
vt 0.7900 -0.4092
vt 0.6904 -0.4895
vt 0.7979 -0.4832
vt 0.7520 -0.5269
vt 0.8013 -0.5396
vt 0.7163 -0.5601
vt 0.7607 -0.5771
vt 0.7329 -0.5908
vt 0.6997 -0.6045
vt 0.7314 -0.6167
vt 0.7686 -0.5977
vt 0.6929 -0.7173
vt 0.6978 -0.8306
vt 0.6704 -0.7485
vt 0.7173 -0.7217
vt 0.6543 -0.7759
vt 0.7285 -0.7485
vt 0.6450 -0.8086
vt 0.7358 -0.7944
vt 0.6343 -0.8804
vt 0.7388 -0.8667
vt 0.6401 -0.9199
vt 0.7319 -0.9268
vt 0.6602 -0.9683
vt 0.7192 -0.9800
vt 0.6821 -0.9932
vt 0.7007 -0.9941
vn 0.4823 0.6660 0.5690
vn 0.8648 0.3679 0.3417
vn 0.8238 0.5658 -0.0355
vn 0.6909 0.3334 0.6415
vn 0.4575 0.8826 0.1084
vn 0.7657 0.5970 -0.2392
vn 0.2384 0.6149 0.7517
vn 0.3127 0.9490 0.0395
vn -0.2295 0.8341 0.5017
vn 0.3655 0.4663 0.8056
vn 0.7492 0.0596 0.6596
vn -0.3193 0.9090 0.2679
vn 0.3998 0.8236 -0.4022
vn 0.7552 0.4492 -0.4774
vn 0.4921 0.3701 -0.7879
vn -0.3033 0.9454 -0.1195
vn 0.2902 0.4506 -0.8442
vn 0.4126 0.2071 -0.8871
vn -0.2309 0.6623 -0.7128
vn 0.2260 0.2394 -0.9443
vn 0.4932 -0.0168 -0.8697
vn -0.5733 0.7673 0.2876
vn 0.2528 -0.1462 -0.9564
vn 0.6251 -0.4085 -0.6651
vn -0.6520 0.5817 0.4864
vn 0.2312 -0.5890 -0.7744
vn -0.3113 0.6677 0.6762
vn 0.3441 -0.8329 -0.4334
vn 0.6664 -0.5973 -0.4463
vn -0.3122 0.2667 0.9118
vn 0.3745 -0.9130 -0.1621
vn 0.6878 -0.6962 -0.2056
vn -0.3371 -0.8892 -0.3093
vn 0.4135 -0.8863 0.2085
vn 0.7514 -0.6443 0.1425
vn 0.7455 -0.5288 0.4058
vn 0.2975 -0.7579 0.5806
vn 0.6663 -0.3454 0.6609
vn -0.3308 -0.9113 0.2453
vn -0.3014 -0.9532 -0.0245
vn -0.7867 -0.6155 0.0481
vn -0.3977 -0.7110 0.5799
vn -0.7743 -0.5738 0.2670
vn 0.2513 -0.4115 0.8761
vn 0.3341 0.0237 0.9422
vn -0.3584 -0.2884 0.8879
vn -0.7463 -0.2061 0.6329
vn -0.6200 0.3902 0.6806
vn -0.9409 -0.1537 0.3018
vn -0.8914 0.2034 0.4050
vn -0.9919 -0.1133 0.0581
vn -0.8877 0.4010 0.2262
vn -0.8060 -0.5726 -0.1503
vn -0.8434 0.5362 0.0345
vn -0.9901 0.0155 -0.1396
vn -0.7212 0.6177 -0.3136
vn -0.8525 -0.4319 -0.2946
vn -0.7769 0.2012 -0.5967
vn -0.7654 -0.1932 -0.6139
vn -0.4093 -0.5792 -0.7050
vn -0.2403 -0.0834 -0.9671
vn -0.2431 0.3555 -0.9025
vn 0.9721 -0.2217 -0.0769
vn 0.9805 -0.0392 -0.1923
vn 0.9423 -0.3345 -0.0142
vn 0.9988 -0.0371 -0.0322
vn 0.9339 -0.3489 -0.0776
vn 0.9825 0.1799 0.0483
vn 0.8802 -0.2455 -0.4063
vn 0.9825 0.1865 0.0007
vn 0.9365 -0.1076 -0.3337
vn 0.9462 0.1965 -0.2571
vn 0.9377 -0.1636 -0.3064
vn 0.9486 0.1410 -0.2833
vn 0.9375 -0.1220 -0.3259
vn 0.9597 0.1078 -0.2594
vn 0.9616 0.0294 -0.2730
vn 0.9603 0.1014 -0.2599
s 1
f 1/1/1 2/2/2 3/3/3
f 1/1/1 4/4/4 2/2/2
f 5/5/5 1/1/1 3/3/3
f 5/5/5 3/3/3 6/6/6
f 1/1/1 7/7/7 4/4/4
f 8/8/8 5/5/5 6/6/6
f 7/7/7 1/1/1 9/9/9
f 1/1/1 5/5/5 9/9/9
f 10/10/10 4/4/4 7/7/7
f 11/11/11 4/4/4 10/10/10
f 12/12/12 5/5/5 8/8/8
f 12/12/12 9/9/9 5/5/5
f 13/13/13 8/8/8 6/6/6
f 13/13/13 6/6/6 14/14/14
f 13/13/13 14/14/14 15/15/15
f 16/16/16 12/12/12 8/8/8
f 13/13/13 16/16/16 8/8/8
f 17/17/17 13/13/13 15/15/15
f 18/18/18 17/17/17 15/15/15
f 13/13/13 17/17/17 19/19/19
f 13/13/13 19/19/19 16/16/16
f 18/18/18 20/20/20 17/17/17
f 17/17/17 20/20/20 19/19/19
f 20/20/20 18/18/18 21/21/21
f 22/22/22 12/12/12 16/16/16
f 22/22/22 9/9/9 12/12/12
f 23/23/23 20/20/20 21/21/21
f 23/23/23 21/21/21 24/24/24
f 22/22/22 25/25/25 9/9/9
f 26/26/26 23/23/23 24/24/24
f 27/27/27 9/9/9 25/25/25
f 27/27/27 7/7/7 9/9/9
f 10/10/10 7/7/7 27/27/27
f 28/28/28 26/26/26 24/24/24
f 28/28/28 24/24/24 29/29/29
f 30/30/30 10/10/10 27/27/27
f 31/31/31 28/28/28 29/29/29
f 32/32/32 31/31/31 29/29/29
f 26/26/26 28/28/28 33/33/33
f 28/28/28 31/31/31 33/33/33
f 34/34/34 31/31/31 32/32/32
f 34/34/34 32/32/32 35/35/35
f 34/34/34 35/35/35 36/36/36
f 37/37/37 34/34/34 36/36/36
f 37/37/37 36/36/36 38/38/38
f 31/31/31 34/34/34 39/39/39
f 39/39/39 34/34/34 37/37/37
f 40/40/40 31/31/31 39/39/39
f 31/31/31 40/40/40 33/33/33
f 39/39/39 41/41/41 40/40/40
f 41/41/41 33/33/33 40/40/40
f 39/39/39 37/37/37 42/42/42
f 39/39/39 43/43/43 41/41/41
f 43/43/43 39/39/39 42/42/42
f 44/44/44 37/37/37 38/38/38
f 42/42/42 37/37/37 44/44/44
f 45/45/45 44/44/44 38/38/38
f 45/45/45 38/38/38 11/11/11
f 45/45/45 11/11/11 10/10/10
f 30/30/30 45/45/45 10/10/10
f 44/44/44 45/45/45 46/46/46
f 45/45/45 30/30/30 46/46/46
f 42/42/42 44/44/44 46/46/46
f 47/47/47 42/42/42 46/46/46
f 47/47/47 46/46/46 30/30/30
f 43/43/43 42/42/42 47/47/47
f 48/48/48 47/47/47 30/30/30
f 48/48/48 30/30/30 27/27/27
f 48/48/48 27/27/27 25/25/25
f 49/49/49 43/43/43 47/47/47
f 43/43/43 49/49/49 41/41/41
f 48/48/48 50/50/50 47/47/47
f 50/50/50 49/49/49 47/47/47
f 48/48/48 25/25/25 50/50/50
f 49/49/49 51/51/51 41/41/41
f 51/51/51 49/49/49 50/50/50
f 52/52/52 50/50/50 25/25/25
f 52/52/52 51/51/51 50/50/50
f 52/52/52 25/25/25 22/22/22
f 51/51/51 53/53/53 41/41/41
f 41/41/41 53/53/53 33/33/33
f 52/52/52 22/22/22 54/54/54
f 22/22/22 16/16/16 54/54/54
f 55/55/55 51/51/51 52/52/52
f 55/55/55 52/52/52 54/54/54
f 16/16/16 56/56/56 54/54/54
f 55/55/55 54/54/54 56/56/56
f 19/19/19 56/56/56 16/16/16
f 57/57/57 51/51/51 55/55/55
f 57/57/57 53/53/53 51/51/51
f 58/58/58 55/55/55 56/56/56
f 58/58/58 56/56/56 19/19/19
f 59/59/59 57/57/57 55/55/55
f 58/58/58 59/59/59 55/55/55
f 60/60/60 53/53/53 57/57/57
f 59/59/59 60/60/60 57/57/57
f 60/60/60 33/33/33 53/53/53
f 26/26/26 33/33/33 60/60/60
f 23/23/23 26/26/26 60/60/60
f 59/59/59 61/61/61 60/60/60
f 61/61/61 23/23/23 60/60/60
f 58/58/58 61/61/61 59/59/59
f 20/20/20 23/23/23 61/61/61
f 58/58/58 62/62/62 61/61/61
f 62/62/62 20/20/20 61/61/61
f 62/62/62 58/58/58 19/19/19
f 20/20/20 62/62/62 19/19/19
f 11/63/63 63/64/64 4/65/65
f 63/64/64 11/63/63 38/66/66
f 63/64/64 2/67/67 4/65/65
f 63/64/64 38/66/66 36/68/68
f 63/64/64 3/69/69 2/67/67
f 35/70/70 63/64/64 36/68/68
f 63/64/64 6/71/71 3/69/69
f 32/72/72 63/64/64 35/70/70
f 63/64/64 14/73/73 6/71/71
f 29/74/74 63/64/64 32/72/72
f 63/64/64 15/75/75 14/73/73
f 24/76/76 63/64/64 29/74/74
f 63/64/64 18/77/77 15/75/75
f 21/78/78 63/64/64 24/76/76
f 18/77/77 63/64/64 21/78/78
