# Blender v2.78 (sub 0) OBJ File: ''
# www.blender.org
o mesh00122
v -0.093506 -0.862093 -1.438287
v -0.093506 -0.154393 -1.711789
v 0.266894 -0.582493 -1.750890
v 0.097194 -0.039693 -1.789888
v 1.686294 -0.219993 -3.000890
v 1.677694 0.361307 -3.118089
v 1.562994 0.610507 -2.493089
v 0.262294 0.260507 -1.399289
v -0.093506 0.353307 -1.125890
v 1.671594 0.346507 -1.985189
v 0.641294 0.101307 -1.086789
v 1.669194 -0.142493 -1.907087
v 0.797594 -0.399493 -1.047689
v 1.670394 -0.490993 -2.297689
v 0.526894 -0.719893 -1.399289
v -0.093506 -0.833993 -0.657087
v 0.561394 -0.483693 -0.383687
v 0.087694 -0.516693 2.116309
v 0.497594 0.290707 -0.500890
v 0.087694 0.841707 1.803813
v -0.578106 0.290707 -0.500890
v 0.688294 0.497507 1.881911
v 0.688294 -0.114093 1.999114
v 0.092609 -0.208532 2.389373
v 0.531659 0.509218 2.154998
v 0.092609 0.732193 2.067096
v 0.531659 0.057643 2.301471
v -0.825906 0.101307 -1.086789
v -0.642206 -0.483693 -0.383687
v -0.512506 0.497507 1.881911
v -0.346291 0.509218 2.154998
v -0.512506 -0.114093 1.999114
v -0.346291 0.057643 2.301471
v -0.711506 -0.719893 -1.399289
v -0.451506 -0.582493 -1.750890
v -1.855006 -0.490993 -2.297689
v -1.870806 -0.219993 -3.000890
v -0.982206 -0.399493 -1.047689
v -1.853806 -0.142493 -1.907087
v -1.856206 0.346507 -1.985189
v -0.446906 0.260507 -1.399289
v -1.747606 0.610507 -2.493089
v -0.282006 -0.039693 -1.789888
v -1.862306 0.361307 -3.118089
v 0.092609 -0.208532 2.389373
v 0.531659 0.509218 2.154998
v 0.092609 0.732193 2.067096
v 0.531659 0.057643 2.301471
v -0.346291 0.509218 2.154998
v -0.346291 0.057643 2.301471
v 0.092634 -0.223365 1.544816
v 0.312159 0.135510 1.427629
v 0.092634 0.246998 1.383677
v 0.312159 -0.090277 1.500865
v -0.126816 0.135510 1.427629
v -0.126816 -0.090277 1.500865
v 0.092653 -0.195215 1.028054
v 0.147534 -0.105496 0.998757
v 0.092653 -0.077624 0.987769
v 0.147534 -0.161943 1.017066
v 0.037790 -0.105496 0.998757
v 0.037790 -0.161943 1.017066
vt 0.6240 -0.7915
vt 0.6060 -0.8164
vt 0.6152 -0.8257
vt 0.5977 -0.8320
vt 0.6279 -0.9419
vt 0.6118 -0.9604
vt 0.5933 -0.9414
vt 0.5815 -0.8350
vt 0.5825 -0.8057
vt 0.5757 -0.9297
vt 0.5664 -0.8467
vt 0.5605 -0.9282
vt 0.5498 -0.8525
vt 0.5479 -0.9497
vt 0.5200 -0.8740
vt 0.5361 -0.9883
vt 0.5332 -0.8608
vt 0.5054 -0.8486
vt 0.5186 -0.8096
vt 0.5386 -0.7988
vt 0.5156 -0.6489
vt 0.5615 -0.8037
vt 0.5757 -0.6338
vt 0.5615 -0.8037
vt 0.5552 -0.6392
vt 0.5366 -0.6436
vt 0.5137 -0.5591
vt 0.5532 -0.5557
vt 0.5728 -0.5542
vt 0.5342 -0.5571
vt 0.5664 -0.8467
vt 0.5386 -0.7988
vt 0.5552 -0.6392
vt 0.5532 -0.5557
vt 0.5366 -0.6436
vt 0.5342 -0.5571
vt 0.5332 -0.8608
vt 0.5200 -0.8740
vt 0.5479 -0.9497
vt 0.5361 -0.9883
vt 0.5498 -0.8525
vt 0.5605 -0.9282
vt 0.5757 -0.9297
vt 0.5815 -0.8350
vt 0.5933 -0.9414
vt 0.5977 -0.8320
vt 0.6118 -0.9604
vt 0.6279 -0.9419
vt 0.6152 -0.8257
vt 0.5342 -0.5571
vt 0.5532 -0.5557
vt 0.5137 -0.5591
vt 0.5342 -0.5571
vt 0.5342 -0.5571
vt 0.5137 -0.5591
vt 0.5728 -0.5542
vt 0.5532 -0.5557
vt 0.5532 -0.5557
vt 0.5532 -0.5557
vt 0.5342 -0.5571
vt 0.5728 -0.5542
vt 0.5532 -0.5557
vt 0.5342 -0.5571
vt 0.5728 -0.5542
vt 0.5532 -0.5557
vt 0.5342 -0.5571
vt 0.5137 -0.5591
vn 0.0006 -0.3605 -0.9328
vn 0.0023 0.2363 -0.9717
vn -0.5126 -0.2679 -0.8157
vn -0.6133 0.3930 -0.6851
vn -0.6092 -0.1774 -0.7729
vn -0.6595 0.2436 -0.7112
vn -0.3653 0.9187 -0.1500
vn -0.1204 0.9799 -0.1590
vn -0.0087 0.9618 -0.2738
vn 0.3619 0.6867 0.6304
vn 0.6144 0.7045 0.3553
vn 0.7005 -0.2287 0.6760
vn 0.8222 -0.3138 0.4750
vn 0.1896 -0.9786 -0.0795
vn 0.0623 -0.9105 -0.4087
vn -0.0797 -0.9295 -0.3600
vn 0.3065 -0.9516 -0.0217
vn -0.0006 -0.9879 -0.1551
vn -0.0267 -0.9890 0.1456
vn 0.8455 -0.5188 0.1268
vn 0.0084 -0.8902 0.4554
vn 0.7442 0.6617 -0.0915
vn 0.0084 0.9953 0.0960
vn -0.7368 0.6762 0.0039
vn 0.8564 0.4977 0.1375
vn 0.8630 -0.4110 0.2938
vn 0.0027 -0.3655 0.9308
vn 0.4381 0.3495 0.8282
vn 0.0035 0.5890 0.8082
vn 0.4351 -0.1666 0.8848
vn -0.5944 0.6875 0.4172
vn -0.8403 -0.4928 0.2257
vn -0.8397 0.5080 0.1918
vn -0.4291 0.3508 0.8324
vn -0.8489 -0.3999 0.3457
vn -0.4284 -0.1632 0.8888
vn -0.3080 -0.9513 -0.0091
vn -0.0625 -0.9105 -0.4089
vn -0.1896 -0.9786 -0.0795
vn 0.0797 -0.9295 -0.3600
vn -0.7819 -0.3214 0.5342
vn -0.7005 -0.2287 0.6760
vn -0.3619 0.6867 0.6304
vn 0.1211 0.9797 -0.1598
vn 0.3653 0.9187 -0.1500
vn 0.6156 0.3925 -0.6834
vn 0.6595 0.2437 -0.7111
vn 0.6092 -0.1773 -0.7729
vn 0.5141 -0.2678 -0.8149
vn 0.4969 0.3098 0.8106
vn 0.4247 -0.1865 0.8859
vn 0.0000 0.6135 0.7897
vn -0.4969 0.3098 0.8106
vn -0.8305 0.5328 0.1626
vn 0.0001 0.9999 0.0144
vn 0.0000 -0.4126 0.9109
vn -0.4247 -0.1866 0.8859
vn -0.8135 -0.3523 0.4627
vn -0.5763 -0.0908 0.8122
vn -0.5816 0.5421 0.6065
vn 0.0001 -0.7966 0.6046
vn 0.8136 -0.3522 0.4627
vn 0.8305 0.5327 0.1626
vn 0.0000 -0.3891 0.9212
vn 0.5763 -0.0907 0.8122
vn 0.5817 0.5420 0.6065
vn 0.0001 0.8718 0.4899
s 1
f 1/1/1 2/2/2 3/3/3
f 3/3/3 2/2/2 4/4/4
f 3/3/3 4/4/4 5/5/5
f 5/5/5 4/4/4 6/6/6
f 4/4/4 7/7/7 6/6/6
f 8/8/8 7/7/7 4/4/4
f 4/4/4 2/2/2 8/8/8
f 8/8/8 2/2/2 9/9/9
f 8/8/8 10/10/10 7/7/7
f 11/11/11 8/8/8 9/9/9
f 11/11/11 10/10/10 8/8/8
f 11/11/11 12/12/12 10/10/10
f 13/13/13 12/12/12 11/11/11
f 14/14/14 12/12/12 13/13/13
f 14/14/14 3/15/15 5/16/16
f 15/17/17 3/15/15 14/14/14
f 14/14/14 13/13/13 15/17/17
f 3/15/15 15/17/17 1/18/18
f 1/18/18 15/17/17 16/19/19
f 15/17/17 13/13/13 17/20/20
f 15/17/17 17/20/20 16/19/19
f 11/11/11 17/20/20 13/13/13
f 17/20/20 18/21/21 16/19/19
f 11/11/11 9/9/9 19/22/22
f 19/22/22 17/20/20 11/11/11
f 20/23/23 19/22/22 9/9/9
f 20/23/23 9/9/9 21/24/24
f 19/22/22 22/25/25 17/20/20
f 20/23/23 22/25/25 19/22/22
f 23/26/26 18/21/21 17/20/20
f 17/20/20 22/25/25 23/26/26
f 18/21/21 23/26/26 24/27/27
f 22/25/25 20/23/23 25/28/28
f 25/28/28 20/23/23 26/29/29
f 23/26/26 22/25/25 27/30/30
f 24/27/27 23/26/26 27/30/30
f 27/30/30 22/25/25 25/28/28
f 28/31/31 21/24/24 9/9/9
f 21/24/24 28/31/31 29/32/32
f 21/24/24 29/32/32 30/33/33
f 20/23/23 21/24/24 30/33/33
f 30/33/33 31/34/34 20/23/23
f 31/34/34 26/29/29 20/23/23
f 29/32/32 32/35/35 30/33/33
f 33/36/36 31/34/34 30/33/33
f 32/35/35 33/36/36 30/33/33
f 24/27/27 33/36/36 32/35/35
f 18/21/21 24/27/27 32/35/35
f 32/35/35 29/32/32 18/21/21
f 29/32/32 16/19/19 18/21/21
f 34/37/37 16/19/19 29/32/32
f 1/18/18 16/19/19 34/37/37
f 35/38/38 1/18/18 34/37/37
f 36/39/39 37/40/40 35/38/38
f 34/37/37 36/39/39 35/38/38
f 34/37/37 29/32/32 38/41/41
f 36/39/39 34/37/37 38/41/41
f 28/31/31 38/41/41 29/32/32
f 36/39/39 38/41/41 39/42/42
f 38/41/41 28/31/31 39/42/42
f 28/31/31 40/43/43 39/42/42
f 28/31/31 41/44/44 40/43/43
f 28/31/31 9/9/9 41/44/44
f 41/44/44 42/45/45 40/43/43
f 41/44/44 9/9/9 2/2/2
f 41/44/44 43/46/46 42/45/45
f 43/46/46 41/44/44 2/2/2
f 43/46/46 44/47/47 42/45/45
f 37/48/48 44/47/47 43/46/46
f 35/49/49 37/48/48 43/46/46
f 35/49/49 43/46/46 2/2/2
f 1/1/1 35/49/49 2/2/2
f 31/34/34 33/36/36 50/50/50 49/51/51
f 45/52/52 48/53/53 54/54/54 51/55/55
f 24/27/27 27/30/30 48/53/53 45/52/52
f 26/29/29 31/34/34 49/51/51 47/56/56
f 27/30/30 25/28/28 46/57/57 48/53/53
f 25/28/28 26/29/29 47/56/56 46/57/57
f 33/36/36 24/27/27 45/52/52 50/50/50
f 54/54/54 52/58/58 58/59/59 60/60/60
f 46/57/57 47/56/56 53/61/61 52/58/58
f 47/56/56 49/51/51 55/62/62 53/61/61
f 49/51/51 50/50/50 56/63/63 55/62/62
f 48/53/53 46/57/57 52/58/58 54/54/54
f 50/50/50 45/52/52 51/55/55 56/63/63
f 59/64/64 61/65/65 62/66/66 57/67/67 60/60/60 58/59/59
f 56/63/63 51/55/55 57/67/67 62/66/66
f 51/55/55 54/54/54 60/60/60 57/67/67
f 52/58/58 53/61/61 59/64/64 58/59/59
f 53/61/61 55/62/62 61/65/65 59/64/64
f 55/62/62 56/63/63 62/66/66 61/65/65
